<mxfile host="Electron" agent="Mozilla/5.0 (X11; Linux x86_64) AppleWebKit/537.36 (KHTML, like Gecko) draw.io/26.1.1 Chrome/132.0.6834.210 Electron/34.3.3 Safari/537.36" version="26.1.1">
  <diagram name="Page-1" id="THkSGYZHR84XrlZxpEDr">
    <mxGraphModel dx="3147" dy="1898" grid="1" gridSize="10" guides="1" tooltips="1" connect="1" arrows="1" fold="1" page="1" pageScale="1" pageWidth="850" pageHeight="1100" math="0" shadow="0">
      <root>
        <mxCell id="0" />
        <mxCell id="1" parent="0" />
        <mxCell id="6ZPeyCIfYGUNQCs3BUn_-82" value="" style="rounded=1;whiteSpace=wrap;html=1;" vertex="1" parent="1">
          <mxGeometry x="1470" y="430" width="210" height="350" as="geometry" />
        </mxCell>
        <mxCell id="6ZPeyCIfYGUNQCs3BUn_-6" value="Attendance" style="whiteSpace=wrap;html=1;rounded=1;" vertex="1" parent="1">
          <mxGeometry x="1520" y="440" width="120" height="80" as="geometry" />
        </mxCell>
        <mxCell id="6ZPeyCIfYGUNQCs3BUn_-8" value="Exam Schedules" style="whiteSpace=wrap;html=1;rounded=1;" vertex="1" parent="1">
          <mxGeometry x="1520" y="2000" width="120" height="80" as="geometry" />
        </mxCell>
        <mxCell id="6ZPeyCIfYGUNQCs3BUn_-10" value="Overall Grade" style="whiteSpace=wrap;html=1;rounded=1;" vertex="1" parent="1">
          <mxGeometry x="1520" y="2120" width="120" height="80" as="geometry" />
        </mxCell>
        <mxCell id="6ZPeyCIfYGUNQCs3BUn_-12" value="Report" style="whiteSpace=wrap;html=1;rounded=1;" vertex="1" parent="1">
          <mxGeometry x="1520" y="1640" width="120" height="80" as="geometry" />
        </mxCell>
        <mxCell id="6ZPeyCIfYGUNQCs3BUn_-20" value="Services" style="whiteSpace=wrap;html=1;rounded=1;" vertex="1" parent="1">
          <mxGeometry x="1520" y="1400" width="120" height="80" as="geometry" />
        </mxCell>
        <mxCell id="6ZPeyCIfYGUNQCs3BUn_-22" value="Billing" style="whiteSpace=wrap;html=1;rounded=1;" vertex="1" parent="1">
          <mxGeometry x="1520" y="1040" width="120" height="80" as="geometry" />
        </mxCell>
        <mxCell id="6ZPeyCIfYGUNQCs3BUn_-24" value="Student Councline" style="whiteSpace=wrap;html=1;rounded=1;" vertex="1" parent="1">
          <mxGeometry x="1520" y="1160" width="120" height="80" as="geometry" />
        </mxCell>
        <mxCell id="6ZPeyCIfYGUNQCs3BUn_-28" value="Enrolements" style="whiteSpace=wrap;html=1;rounded=1;" vertex="1" parent="1">
          <mxGeometry x="1520" y="800" width="120" height="80" as="geometry" />
        </mxCell>
        <mxCell id="6ZPeyCIfYGUNQCs3BUn_-30" value="Clearance" style="whiteSpace=wrap;html=1;rounded=1;" vertex="1" parent="1">
          <mxGeometry x="1520" y="1280" width="120" height="80" as="geometry" />
        </mxCell>
        <mxCell id="6ZPeyCIfYGUNQCs3BUn_-32" value="Announcements" style="whiteSpace=wrap;html=1;rounded=1;" vertex="1" parent="1">
          <mxGeometry x="1520" y="920" width="120" height="80" as="geometry" />
        </mxCell>
        <mxCell id="6ZPeyCIfYGUNQCs3BUn_-34" value="Project" style="whiteSpace=wrap;html=1;rounded=1;" vertex="1" parent="1">
          <mxGeometry x="1520" y="680" width="120" height="80" as="geometry" />
        </mxCell>
        <mxCell id="6ZPeyCIfYGUNQCs3BUn_-36" value="Final Result" style="whiteSpace=wrap;html=1;rounded=1;" vertex="1" parent="1">
          <mxGeometry x="1520" y="1760" width="120" height="80" as="geometry" />
        </mxCell>
        <mxCell id="6ZPeyCIfYGUNQCs3BUn_-38" value="Re-Evaluation" style="whiteSpace=wrap;html=1;rounded=1;" vertex="1" parent="1">
          <mxGeometry x="1520" y="1880" width="120" height="80" as="geometry" />
        </mxCell>
        <mxCell id="6ZPeyCIfYGUNQCs3BUn_-40" value="Exam Course Regestraction&amp;nbsp;" style="whiteSpace=wrap;html=1;rounded=1;" vertex="1" parent="1">
          <mxGeometry x="1520" y="1520" width="120" height="80" as="geometry" />
        </mxCell>
        <mxCell id="6ZPeyCIfYGUNQCs3BUn_-44" value="" style="edgeStyle=orthogonalEdgeStyle;rounded=0;orthogonalLoop=1;jettySize=auto;html=1;" edge="1" parent="1" source="6ZPeyCIfYGUNQCs3BUn_-42" target="6ZPeyCIfYGUNQCs3BUn_-43">
          <mxGeometry relative="1" as="geometry">
            <Array as="points">
              <mxPoint x="1060" y="520" />
              <mxPoint x="1060" y="400" />
            </Array>
          </mxGeometry>
        </mxCell>
        <mxCell id="6ZPeyCIfYGUNQCs3BUn_-46" value="" style="edgeStyle=orthogonalEdgeStyle;rounded=0;orthogonalLoop=1;jettySize=auto;html=1;" edge="1" parent="1" source="6ZPeyCIfYGUNQCs3BUn_-42" target="6ZPeyCIfYGUNQCs3BUn_-45">
          <mxGeometry relative="1" as="geometry">
            <Array as="points">
              <mxPoint x="1060" y="520" />
              <mxPoint x="1060" y="670" />
            </Array>
          </mxGeometry>
        </mxCell>
        <mxCell id="6ZPeyCIfYGUNQCs3BUn_-42" value="Authencation" style="rounded=1;whiteSpace=wrap;html=1;" vertex="1" parent="1">
          <mxGeometry x="910" y="480" width="120" height="80" as="geometry" />
        </mxCell>
        <mxCell id="6ZPeyCIfYGUNQCs3BUn_-81" value="" style="edgeStyle=orthogonalEdgeStyle;rounded=0;orthogonalLoop=1;jettySize=auto;html=1;" edge="1" parent="1" source="6ZPeyCIfYGUNQCs3BUn_-43" target="6ZPeyCIfYGUNQCs3BUn_-80">
          <mxGeometry relative="1" as="geometry" />
        </mxCell>
        <mxCell id="6ZPeyCIfYGUNQCs3BUn_-43" value="Professors" style="rounded=1;whiteSpace=wrap;html=1;" vertex="1" parent="1">
          <mxGeometry x="1080" y="360" width="120" height="80" as="geometry" />
        </mxCell>
        <mxCell id="6ZPeyCIfYGUNQCs3BUn_-48" value="" style="edgeStyle=orthogonalEdgeStyle;rounded=0;orthogonalLoop=1;jettySize=auto;html=1;" edge="1" parent="1" source="6ZPeyCIfYGUNQCs3BUn_-45" target="6ZPeyCIfYGUNQCs3BUn_-47">
          <mxGeometry relative="1" as="geometry">
            <Array as="points">
              <mxPoint x="1220" y="670" />
              <mxPoint x="1220" y="560" />
            </Array>
          </mxGeometry>
        </mxCell>
        <mxCell id="6ZPeyCIfYGUNQCs3BUn_-51" value="" style="edgeStyle=orthogonalEdgeStyle;rounded=0;orthogonalLoop=1;jettySize=auto;html=1;" edge="1" parent="1" source="6ZPeyCIfYGUNQCs3BUn_-45" target="6ZPeyCIfYGUNQCs3BUn_-50">
          <mxGeometry relative="1" as="geometry" />
        </mxCell>
        <mxCell id="6ZPeyCIfYGUNQCs3BUn_-53" value="" style="edgeStyle=orthogonalEdgeStyle;rounded=0;orthogonalLoop=1;jettySize=auto;html=1;" edge="1" parent="1" source="6ZPeyCIfYGUNQCs3BUn_-45" target="6ZPeyCIfYGUNQCs3BUn_-52">
          <mxGeometry relative="1" as="geometry">
            <Array as="points">
              <mxPoint x="1220" y="670" />
              <mxPoint x="1220" y="800" />
            </Array>
          </mxGeometry>
        </mxCell>
        <mxCell id="6ZPeyCIfYGUNQCs3BUn_-55" value="" style="edgeStyle=orthogonalEdgeStyle;rounded=0;orthogonalLoop=1;jettySize=auto;html=1;" edge="1" parent="1" source="6ZPeyCIfYGUNQCs3BUn_-45" target="6ZPeyCIfYGUNQCs3BUn_-54">
          <mxGeometry relative="1" as="geometry">
            <Array as="points">
              <mxPoint x="1220" y="670" />
              <mxPoint x="1220" y="920" />
            </Array>
          </mxGeometry>
        </mxCell>
        <mxCell id="6ZPeyCIfYGUNQCs3BUn_-45" value="Students" style="rounded=1;whiteSpace=wrap;html=1;" vertex="1" parent="1">
          <mxGeometry x="1080" y="640" width="120" height="60" as="geometry" />
        </mxCell>
        <mxCell id="6ZPeyCIfYGUNQCs3BUn_-59" value="" style="edgeStyle=orthogonalEdgeStyle;rounded=0;orthogonalLoop=1;jettySize=auto;html=1;" edge="1" parent="1" source="6ZPeyCIfYGUNQCs3BUn_-47" target="6ZPeyCIfYGUNQCs3BUn_-58">
          <mxGeometry relative="1" as="geometry">
            <Array as="points">
              <mxPoint x="1480" y="560" />
              <mxPoint x="1480" y="600" />
            </Array>
          </mxGeometry>
        </mxCell>
        <mxCell id="6ZPeyCIfYGUNQCs3BUn_-60" style="edgeStyle=orthogonalEdgeStyle;rounded=0;orthogonalLoop=1;jettySize=auto;html=1;entryX=0;entryY=0.5;entryDx=0;entryDy=0;" edge="1" parent="1" source="6ZPeyCIfYGUNQCs3BUn_-47" target="6ZPeyCIfYGUNQCs3BUn_-6">
          <mxGeometry relative="1" as="geometry">
            <Array as="points">
              <mxPoint x="1480" y="560" />
              <mxPoint x="1480" y="480" />
            </Array>
          </mxGeometry>
        </mxCell>
        <mxCell id="6ZPeyCIfYGUNQCs3BUn_-61" style="edgeStyle=orthogonalEdgeStyle;rounded=0;orthogonalLoop=1;jettySize=auto;html=1;entryX=0;entryY=0.5;entryDx=0;entryDy=0;" edge="1" parent="1" source="6ZPeyCIfYGUNQCs3BUn_-47" target="6ZPeyCIfYGUNQCs3BUn_-34">
          <mxGeometry relative="1" as="geometry">
            <Array as="points">
              <mxPoint x="1480" y="560" />
              <mxPoint x="1480" y="720" />
            </Array>
          </mxGeometry>
        </mxCell>
        <mxCell id="6ZPeyCIfYGUNQCs3BUn_-47" value="Academic" style="rounded=1;whiteSpace=wrap;html=1;" vertex="1" parent="1">
          <mxGeometry x="1240" y="520" width="120" height="80" as="geometry" />
        </mxCell>
        <mxCell id="6ZPeyCIfYGUNQCs3BUn_-62" style="edgeStyle=orthogonalEdgeStyle;rounded=0;orthogonalLoop=1;jettySize=auto;html=1;exitX=1;exitY=0.5;exitDx=0;exitDy=0;entryX=0;entryY=0.5;entryDx=0;entryDy=0;" edge="1" parent="1" source="6ZPeyCIfYGUNQCs3BUn_-50" target="6ZPeyCIfYGUNQCs3BUn_-28">
          <mxGeometry relative="1" as="geometry" />
        </mxCell>
        <mxCell id="6ZPeyCIfYGUNQCs3BUn_-63" style="edgeStyle=orthogonalEdgeStyle;rounded=0;orthogonalLoop=1;jettySize=auto;html=1;entryX=0;entryY=0.5;entryDx=0;entryDy=0;" edge="1" parent="1" source="6ZPeyCIfYGUNQCs3BUn_-50" target="6ZPeyCIfYGUNQCs3BUn_-32">
          <mxGeometry relative="1" as="geometry" />
        </mxCell>
        <mxCell id="6ZPeyCIfYGUNQCs3BUn_-65" style="edgeStyle=orthogonalEdgeStyle;rounded=0;orthogonalLoop=1;jettySize=auto;html=1;entryX=0;entryY=0.5;entryDx=0;entryDy=0;" edge="1" parent="1" source="6ZPeyCIfYGUNQCs3BUn_-50" target="6ZPeyCIfYGUNQCs3BUn_-24">
          <mxGeometry relative="1" as="geometry" />
        </mxCell>
        <mxCell id="6ZPeyCIfYGUNQCs3BUn_-66" style="edgeStyle=orthogonalEdgeStyle;rounded=0;orthogonalLoop=1;jettySize=auto;html=1;entryX=0;entryY=0.5;entryDx=0;entryDy=0;" edge="1" parent="1" source="6ZPeyCIfYGUNQCs3BUn_-50" target="6ZPeyCIfYGUNQCs3BUn_-30">
          <mxGeometry relative="1" as="geometry" />
        </mxCell>
        <mxCell id="6ZPeyCIfYGUNQCs3BUn_-50" value="Admin" style="rounded=1;whiteSpace=wrap;html=1;" vertex="1" parent="1">
          <mxGeometry x="1240" y="640" width="120" height="80" as="geometry" />
        </mxCell>
        <mxCell id="6ZPeyCIfYGUNQCs3BUn_-68" style="edgeStyle=orthogonalEdgeStyle;rounded=0;orthogonalLoop=1;jettySize=auto;html=1;entryX=0;entryY=0.5;entryDx=0;entryDy=0;" edge="1" parent="1" source="6ZPeyCIfYGUNQCs3BUn_-52" target="6ZPeyCIfYGUNQCs3BUn_-40">
          <mxGeometry relative="1" as="geometry">
            <Array as="points">
              <mxPoint x="1400" y="800" />
              <mxPoint x="1400" y="1560" />
            </Array>
          </mxGeometry>
        </mxCell>
        <mxCell id="6ZPeyCIfYGUNQCs3BUn_-69" style="edgeStyle=orthogonalEdgeStyle;rounded=0;orthogonalLoop=1;jettySize=auto;html=1;entryX=0;entryY=0.5;entryDx=0;entryDy=0;" edge="1" parent="1" source="6ZPeyCIfYGUNQCs3BUn_-52" target="6ZPeyCIfYGUNQCs3BUn_-12">
          <mxGeometry relative="1" as="geometry">
            <Array as="points">
              <mxPoint x="1400" y="800" />
              <mxPoint x="1400" y="1680" />
            </Array>
          </mxGeometry>
        </mxCell>
        <mxCell id="6ZPeyCIfYGUNQCs3BUn_-70" style="edgeStyle=orthogonalEdgeStyle;rounded=0;orthogonalLoop=1;jettySize=auto;html=1;entryX=0;entryY=0.5;entryDx=0;entryDy=0;" edge="1" parent="1" source="6ZPeyCIfYGUNQCs3BUn_-52" target="6ZPeyCIfYGUNQCs3BUn_-36">
          <mxGeometry relative="1" as="geometry">
            <Array as="points">
              <mxPoint x="1400" y="800" />
              <mxPoint x="1400" y="1800" />
            </Array>
          </mxGeometry>
        </mxCell>
        <mxCell id="6ZPeyCIfYGUNQCs3BUn_-71" style="edgeStyle=orthogonalEdgeStyle;rounded=0;orthogonalLoop=1;jettySize=auto;html=1;entryX=0;entryY=0.5;entryDx=0;entryDy=0;" edge="1" parent="1" source="6ZPeyCIfYGUNQCs3BUn_-52" target="6ZPeyCIfYGUNQCs3BUn_-38">
          <mxGeometry relative="1" as="geometry">
            <Array as="points">
              <mxPoint x="1400" y="800" />
              <mxPoint x="1400" y="1920" />
            </Array>
          </mxGeometry>
        </mxCell>
        <mxCell id="6ZPeyCIfYGUNQCs3BUn_-72" style="edgeStyle=orthogonalEdgeStyle;rounded=0;orthogonalLoop=1;jettySize=auto;html=1;entryX=0;entryY=0.5;entryDx=0;entryDy=0;" edge="1" parent="1" source="6ZPeyCIfYGUNQCs3BUn_-52" target="6ZPeyCIfYGUNQCs3BUn_-8">
          <mxGeometry relative="1" as="geometry">
            <Array as="points">
              <mxPoint x="1400" y="800" />
              <mxPoint x="1400" y="2040" />
            </Array>
          </mxGeometry>
        </mxCell>
        <mxCell id="6ZPeyCIfYGUNQCs3BUn_-73" style="edgeStyle=orthogonalEdgeStyle;rounded=0;orthogonalLoop=1;jettySize=auto;html=1;entryX=0;entryY=0.5;entryDx=0;entryDy=0;" edge="1" parent="1" source="6ZPeyCIfYGUNQCs3BUn_-52" target="6ZPeyCIfYGUNQCs3BUn_-10">
          <mxGeometry relative="1" as="geometry">
            <Array as="points">
              <mxPoint x="1400" y="800" />
              <mxPoint x="1400" y="2160" />
            </Array>
          </mxGeometry>
        </mxCell>
        <mxCell id="6ZPeyCIfYGUNQCs3BUn_-52" value="Examination" style="rounded=1;whiteSpace=wrap;html=1;" vertex="1" parent="1">
          <mxGeometry x="1240" y="760" width="120" height="80" as="geometry" />
        </mxCell>
        <mxCell id="6ZPeyCIfYGUNQCs3BUn_-75" value="" style="edgeStyle=orthogonalEdgeStyle;rounded=0;orthogonalLoop=1;jettySize=auto;html=1;" edge="1" parent="1" source="6ZPeyCIfYGUNQCs3BUn_-54" target="6ZPeyCIfYGUNQCs3BUn_-74">
          <mxGeometry relative="1" as="geometry">
            <Array as="points">
              <mxPoint x="1110" y="980" />
              <mxPoint x="880" y="980" />
            </Array>
          </mxGeometry>
        </mxCell>
        <mxCell id="6ZPeyCIfYGUNQCs3BUn_-77" value="" style="edgeStyle=orthogonalEdgeStyle;rounded=0;orthogonalLoop=1;jettySize=auto;html=1;" edge="1" parent="1" source="6ZPeyCIfYGUNQCs3BUn_-54" target="6ZPeyCIfYGUNQCs3BUn_-76">
          <mxGeometry relative="1" as="geometry" />
        </mxCell>
        <mxCell id="6ZPeyCIfYGUNQCs3BUn_-79" value="" style="edgeStyle=orthogonalEdgeStyle;rounded=0;orthogonalLoop=1;jettySize=auto;html=1;" edge="1" parent="1" source="6ZPeyCIfYGUNQCs3BUn_-54" target="6ZPeyCIfYGUNQCs3BUn_-78">
          <mxGeometry relative="1" as="geometry" />
        </mxCell>
        <mxCell id="6ZPeyCIfYGUNQCs3BUn_-54" value="Calendar" style="rounded=1;whiteSpace=wrap;html=1;" vertex="1" parent="1">
          <mxGeometry x="1050" y="880" width="120" height="80" as="geometry" />
        </mxCell>
        <mxCell id="6ZPeyCIfYGUNQCs3BUn_-58" value="Cource Material" style="rounded=1;whiteSpace=wrap;html=1;" vertex="1" parent="1">
          <mxGeometry x="1520" y="560" width="120" height="80" as="geometry" />
        </mxCell>
        <mxCell id="6ZPeyCIfYGUNQCs3BUn_-64" style="edgeStyle=orthogonalEdgeStyle;rounded=0;orthogonalLoop=1;jettySize=auto;html=1;entryX=-0.019;entryY=0.613;entryDx=0;entryDy=0;entryPerimeter=0;" edge="1" parent="1" source="6ZPeyCIfYGUNQCs3BUn_-50" target="6ZPeyCIfYGUNQCs3BUn_-22">
          <mxGeometry relative="1" as="geometry">
            <Array as="points">
              <mxPoint x="1440" y="680" />
              <mxPoint x="1440" y="1089" />
            </Array>
          </mxGeometry>
        </mxCell>
        <mxCell id="6ZPeyCIfYGUNQCs3BUn_-67" style="edgeStyle=orthogonalEdgeStyle;rounded=0;orthogonalLoop=1;jettySize=auto;html=1;entryX=-0.001;entryY=0.626;entryDx=0;entryDy=0;entryPerimeter=0;" edge="1" parent="1" source="6ZPeyCIfYGUNQCs3BUn_-50" target="6ZPeyCIfYGUNQCs3BUn_-20">
          <mxGeometry relative="1" as="geometry">
            <Array as="points">
              <mxPoint x="1440" y="680" />
              <mxPoint x="1440" y="1450" />
            </Array>
          </mxGeometry>
        </mxCell>
        <mxCell id="6ZPeyCIfYGUNQCs3BUn_-74" value="Time Table" style="whiteSpace=wrap;html=1;rounded=1;" vertex="1" parent="1">
          <mxGeometry x="820" y="1000" width="120" height="80" as="geometry" />
        </mxCell>
        <mxCell id="6ZPeyCIfYGUNQCs3BUn_-76" value="Holidays" style="rounded=1;whiteSpace=wrap;html=1;" vertex="1" parent="1">
          <mxGeometry x="960" y="1000" width="120" height="80" as="geometry" />
        </mxCell>
        <mxCell id="6ZPeyCIfYGUNQCs3BUn_-78" value="Leaves" style="rounded=1;whiteSpace=wrap;html=1;" vertex="1" parent="1">
          <mxGeometry x="1120" y="1000" width="120" height="80" as="geometry" />
        </mxCell>
        <mxCell id="6ZPeyCIfYGUNQCs3BUn_-83" style="edgeStyle=orthogonalEdgeStyle;rounded=0;orthogonalLoop=1;jettySize=auto;html=1;entryX=0.5;entryY=0;entryDx=0;entryDy=0;" edge="1" parent="1" source="6ZPeyCIfYGUNQCs3BUn_-80" target="6ZPeyCIfYGUNQCs3BUn_-82">
          <mxGeometry relative="1" as="geometry" />
        </mxCell>
        <mxCell id="6ZPeyCIfYGUNQCs3BUn_-80" value="Classes and&lt;div&gt;&amp;nbsp;Students&lt;/div&gt;" style="rounded=1;whiteSpace=wrap;html=1;" vertex="1" parent="1">
          <mxGeometry x="1240" y="360" width="120" height="80" as="geometry" />
        </mxCell>
      </root>
    </mxGraphModel>
  </diagram>
</mxfile>
